<?xml version="1.0" encoding="UTF-8" standalone="no"?><!DOCTYPE svg PUBLIC "-//W3C//DTD SVG 1.1//EN" "http://www.w3.org/Graphics/SVG/1.1/DTD/svg11.dtd"><svg width="100%" height="100%" viewBox="0 0 100 100" version="1.1" xmlns="http://www.w3.org/2000/svg" xmlns:xlink="http://www.w3.org/1999/xlink" xml:space="preserve" xmlns:serif="http://www.serif.com/" style="fill-rule:evenodd;clip-rule:evenodd;stroke-linejoin:round;stroke-miterlimit:2;"><rect x="0" y="0" width="100" height="100"/><g transform="matrix(0.71983,0,0,0.71983,-3.50906,2.25652)"><path d="M12.342,34.715l0,-4.91l-4.467,-6.68l1.866,0l2.285,3.494c0.421,0.654 0.814,1.308 1.178,1.961c0.347,-0.606 0.769,-1.289 1.264,-2.047l2.246,-3.408l1.786,0l-4.624,6.68l0,4.91l-1.534,0Z" style="fill:none;fill-rule:nonzero;stroke:#fff;stroke-width:0.63px;"/><path d="M19.409,29.07c0,-1.923 0.517,-3.429 1.55,-4.518c1.033,-1.088 2.366,-1.632 4,-1.632c1.07,0 2.034,0.255 2.893,0.767c0.859,0.511 1.514,1.224 1.965,2.138c0.45,0.914 0.676,1.951 0.676,3.111c0,1.175 -0.238,2.226 -0.712,3.154c-0.474,0.928 -1.146,1.63 -2.016,2.107c-0.869,0.477 -1.807,0.715 -2.814,0.715c-1.091,0 -2.066,-0.263 -2.925,-0.79c-0.859,-0.527 -1.51,-1.247 -1.953,-2.158c-0.442,-0.912 -0.664,-1.877 -0.664,-2.894Zm1.581,0.024c0,1.396 0.376,2.497 1.127,3.3c0.751,0.804 1.693,1.206 2.826,1.206c1.154,0 2.104,-0.406 2.85,-1.218c0.746,-0.811 1.119,-1.963 1.119,-3.454c0,-0.944 -0.16,-1.767 -0.479,-2.471c-0.319,-0.703 -0.785,-1.249 -1.399,-1.636c-0.614,-0.387 -1.303,-0.581 -2.067,-0.581c-1.086,0 -2.02,0.373 -2.803,1.119c-0.782,0.745 -1.174,1.99 -1.174,3.735Z" style="fill:none;fill-rule:nonzero;stroke:#fff;stroke-width:0.63px;"/><path d="M40.074,23.125l1.534,0l0,6.696c0,1.165 -0.132,2.09 -0.396,2.775c-0.263,0.685 -0.739,1.242 -1.427,1.672c-0.687,0.429 -1.59,0.644 -2.707,0.644c-1.086,0 -1.974,-0.187 -2.664,-0.561c-0.691,-0.374 -1.183,-0.916 -1.479,-1.625c-0.295,-0.708 -0.442,-1.677 -0.442,-2.905l0,-6.696l1.533,0l0,6.688c0,1.007 0.094,1.749 0.281,2.226c0.187,0.477 0.509,0.844 0.964,1.102c0.456,0.259 1.014,0.388 1.672,0.388c1.128,0 1.932,-0.256 2.412,-0.767c0.479,-0.511 0.719,-1.494 0.719,-2.949l0,-6.688Z" style="fill:none;fill-rule:nonzero;stroke:#fff;stroke-width:0.63px;"/><path d="M56.928,30.651l1.534,0.388c-0.322,1.259 -0.9,2.22 -1.735,2.881c-0.836,0.662 -1.857,0.992 -3.064,0.992c-1.249,0 -2.265,-0.254 -3.047,-0.763c-0.783,-0.508 -1.378,-1.245 -1.787,-2.209c-0.408,-0.965 -0.613,-2 -0.613,-3.107c0,-1.207 0.231,-2.26 0.692,-3.158c0.461,-0.899 1.117,-1.581 1.969,-2.048c0.851,-0.466 1.787,-0.699 2.81,-0.699c1.159,0 2.134,0.295 2.925,0.885c0.79,0.59 1.341,1.42 1.652,2.49l-1.51,0.356c-0.269,-0.843 -0.659,-1.457 -1.17,-1.842c-0.511,-0.385 -1.154,-0.577 -1.929,-0.577c-0.89,0 -1.635,0.213 -2.233,0.64c-0.598,0.427 -1.018,1 -1.261,1.72c-0.242,0.719 -0.364,1.461 -0.364,2.225c0,0.986 0.144,1.846 0.431,2.581c0.288,0.735 0.734,1.285 1.34,1.648c0.606,0.364 1.262,0.546 1.969,0.546c0.859,0 1.586,-0.248 2.182,-0.743c0.595,-0.496 0.998,-1.231 1.209,-2.206Z" style="fill:none;fill-rule:nonzero;stroke:#fff;stroke-width:0.63px;"/><path d="M59.078,34.715l4.451,-11.59l1.652,0l4.743,11.59l-1.747,0l-1.351,-3.51l-4.846,0l-1.273,3.51l-1.629,0Zm3.344,-4.759l3.929,0l-1.209,-3.21c-0.369,-0.975 -0.643,-1.776 -0.822,-2.403c-0.148,0.743 -0.356,1.481 -0.625,2.213l-1.273,3.4Z" style="fill:none;fill-rule:nonzero;stroke:#fff;stroke-width:0.63px;"/><path d="M71.134,34.715l0,-11.59l1.573,0l6.087,9.099l0,-9.099l1.471,0l0,11.59l-1.573,0l-6.088,-9.107l0,9.107l-1.47,0Z" style="fill:none;fill-rule:nonzero;stroke:#fff;stroke-width:0.63px;"/><path d="M82.668,27.228l-0.364,-2.166l0,-1.937l1.621,0l0,1.937l-0.38,2.166l-0.877,0Z" style="fill:none;fill-rule:nonzero;stroke:#fff;stroke-width:0.63px;"/><path d="M88.882,34.715l0,-10.222l-3.819,0l0,-1.368l9.186,0l0,1.368l-3.834,0l0,10.222l-1.533,0Z" style="fill:none;fill-rule:nonzero;stroke:#fff;stroke-width:0.63px;"/><path d="M100.075,34.715l0,-11.59l1.534,0l0,4.759l6.024,0l0,-4.759l1.534,0l0,11.59l-1.534,0l0,-5.463l-6.024,0l0,5.463l-1.534,0Z" style="fill:none;fill-rule:nonzero;stroke:#fff;stroke-width:0.63px;"/><path d="M110.447,34.715l4.451,-11.59l1.652,0l4.743,11.59l-1.747,0l-1.351,-3.51l-4.846,0l-1.273,3.51l-1.629,0Zm3.344,-4.759l3.929,0l-1.209,-3.21c-0.369,-0.975 -0.643,-1.776 -0.822,-2.403c-0.148,0.743 -0.356,1.481 -0.625,2.213l-1.273,3.4Z" style="fill:none;fill-rule:nonzero;stroke:#fff;stroke-width:0.63px;"/><path d="M124.63,34.715l-4.491,-11.59l1.66,0l3.012,8.42c0.243,0.674 0.446,1.307 0.609,1.897c0.179,-0.633 0.387,-1.265 0.625,-1.897l3.13,-8.42l1.565,0l-4.537,11.59l-1.573,0Z" style="fill:none;fill-rule:nonzero;stroke:#fff;stroke-width:0.63px;"/><path d="M132.147,34.715l0,-11.59l8.38,0l0,1.368l-6.846,0l0,3.549l6.411,0l0,1.36l-6.411,0l0,3.945l7.115,0l0,1.368l-8.649,0Z" style="fill:none;fill-rule:nonzero;stroke:#fff;stroke-width:0.63px;"/><path d="M36.813,59.72l0,-10.221l-3.818,0l0,-1.368l9.186,0l0,1.368l-3.834,0l0,10.221l-1.534,0Z" style="fill:none;fill-rule:nonzero;stroke:#fff;stroke-width:0.63px;"/><path d="M43.801,59.72l0,-11.589l1.534,0l0,4.759l6.024,0l0,-4.759l1.533,0l0,11.589l-1.533,0l0,-5.462l-6.024,0l0,5.462l-1.534,0Z" style="fill:none;fill-rule:nonzero;stroke:#fff;stroke-width:0.63px;"/><path d="M55.477,59.72l0,-11.589l8.38,0l0,1.368l-6.846,0l0,3.549l6.411,0l0,1.36l-6.411,0l0,3.945l7.115,0l0,1.367l-8.649,0Z" style="fill:none;fill-rule:nonzero;stroke:#fff;stroke-width:0.63px;"/><path d="M70.679,59.72l0,-11.589l1.534,0l0,10.222l5.708,0l0,1.367l-7.242,0Z" style="fill:none;fill-rule:nonzero;stroke:#fff;stroke-width:0.63px;"/><rect x="80.008" y="48.131" width="1.534" height="11.589" style="fill:none;fill-rule:nonzero;stroke:#fff;stroke-width:0.63px;"/><path d="M89.668,55.175l0,-1.36l4.909,-0.008l0,4.301c-0.753,0.601 -1.531,1.053 -2.332,1.356c-0.801,0.303 -1.623,0.454 -2.466,0.454c-1.139,0 -2.173,-0.244 -3.103,-0.731c-0.93,-0.488 -1.633,-1.193 -2.107,-2.115c-0.474,-0.922 -0.711,-1.952 -0.711,-3.091c0,-1.128 0.236,-2.18 0.707,-3.158c0.472,-0.978 1.15,-1.704 2.036,-2.178c0.885,-0.474 1.905,-0.711 3.059,-0.711c0.838,0 1.596,0.135 2.273,0.407c0.677,0.271 1.208,0.649 1.593,1.134c0.385,0.485 0.677,1.117 0.877,1.897l-1.383,0.38c-0.174,-0.59 -0.39,-1.054 -0.648,-1.391c-0.259,-0.338 -0.627,-0.608 -1.107,-0.811c-0.48,-0.203 -1.012,-0.304 -1.597,-0.304c-0.701,0 -1.307,0.107 -1.818,0.32c-0.511,0.214 -0.924,0.494 -1.237,0.842c-0.314,0.348 -0.558,0.73 -0.732,1.146c-0.295,0.717 -0.442,1.494 -0.442,2.332c0,1.033 0.178,1.898 0.533,2.593c0.356,0.696 0.874,1.212 1.554,1.55c0.68,0.337 1.402,0.506 2.166,0.506c0.664,0 1.312,-0.128 1.945,-0.384c0.632,-0.255 1.112,-0.528 1.438,-0.818l0,-2.158l-3.407,0Z" style="fill:none;fill-rule:nonzero;stroke:#fff;stroke-width:0.63px;"/><path d="M96.886,59.72l0,-11.589l1.533,0l0,4.759l6.024,0l0,-4.759l1.534,0l0,11.589l-1.534,0l0,-5.462l-6.024,0l0,5.462l-1.533,0Z" style="fill:none;fill-rule:nonzero;stroke:#fff;stroke-width:0.63px;"/><path d="M111.479,59.72l0,-10.221l-3.818,0l0,-1.368l9.186,0l0,1.368l-3.834,0l0,10.221l-1.534,0Z" style="fill:none;fill-rule:nonzero;stroke:#fff;stroke-width:0.63px;"/><path d="M40.398,84.726l-3.075,-11.589l1.573,0l1.763,7.597c0.19,0.796 0.353,1.587 0.49,2.372c0.295,-1.239 0.469,-1.953 0.522,-2.143l2.205,-7.826l1.85,0l1.66,5.866c0.417,1.454 0.717,2.822 0.902,4.103c0.147,-0.733 0.339,-1.573 0.577,-2.522l1.818,-7.447l1.541,0l-3.178,11.589l-1.478,0l-2.443,-8.83c-0.205,-0.738 -0.326,-1.191 -0.363,-1.36c-0.121,0.533 -0.235,0.986 -0.34,1.36l-2.459,8.83l-1.565,0Z" style="fill:none;fill-rule:nonzero;stroke:#fff;stroke-width:0.63px;"/><rect x="53.916" y="73.137" width="1.534" height="11.589" style="fill:none;fill-rule:nonzero;stroke:#fff;stroke-width:0.63px;"/><path d="M61.102,84.726l0,-10.221l-3.818,0l0,-1.368l9.186,0l0,1.368l-3.834,0l0,10.221l-1.534,0Z" style="fill:none;fill-rule:nonzero;stroke:#fff;stroke-width:0.63px;"/><path d="M68.09,84.726l0,-11.589l1.534,0l0,4.759l6.024,0l0,-4.759l1.534,0l0,11.589l-1.534,0l0,-5.462l-6.024,0l0,5.462l-1.534,0Z" style="fill:none;fill-rule:nonzero;stroke:#fff;stroke-width:0.63px;"/><path d="M79.269,79.082c0,-1.924 0.516,-3.43 1.549,-4.518c1.033,-1.088 2.366,-1.632 4,-1.632c1.07,0 2.034,0.255 2.894,0.766c0.859,0.512 1.513,1.224 1.964,2.139c0.451,0.914 0.676,1.951 0.676,3.111c0,1.175 -0.237,2.226 -0.712,3.154c-0.474,0.927 -1.146,1.63 -2.015,2.107c-0.87,0.477 -1.808,0.715 -2.815,0.715c-1.091,0 -2.066,-0.263 -2.925,-0.791c-0.859,-0.527 -1.51,-1.246 -1.952,-2.158c-0.443,-0.911 -0.664,-1.876 -0.664,-2.893Zm1.581,0.024c0,1.396 0.375,2.496 1.126,3.3c0.751,0.804 1.693,1.206 2.826,1.206c1.155,0 2.105,-0.406 2.85,-1.218c0.746,-0.811 1.119,-1.963 1.119,-3.454c0,-0.944 -0.16,-1.767 -0.478,-2.471c-0.319,-0.703 -0.786,-1.249 -1.4,-1.636c-0.614,-0.388 -1.303,-0.581 -2.067,-0.581c-1.086,0 -2.02,0.373 -2.802,1.118c-0.783,0.746 -1.174,1.991 -1.174,3.736Z" style="fill:none;fill-rule:nonzero;stroke:#fff;stroke-width:0.63px;"/><path d="M99.933,73.137l1.534,0l0,6.696c0,1.165 -0.132,2.09 -0.395,2.775c-0.264,0.685 -0.74,1.242 -1.427,1.672c-0.688,0.429 -1.591,0.644 -2.708,0.644c-1.086,0 -1.974,-0.187 -2.664,-0.561c-0.69,-0.374 -1.183,-0.916 -1.478,-1.625c-0.295,-0.709 -0.443,-1.677 -0.443,-2.905l0,-6.696l1.534,0l0,6.688c0,1.007 0.093,1.748 0.28,2.225c0.187,0.477 0.509,0.845 0.965,1.103c0.456,0.258 1.013,0.388 1.672,0.388c1.128,0 1.931,-0.256 2.411,-0.767c0.479,-0.511 0.719,-1.494 0.719,-2.949l0,-6.688Z" style="fill:none;fill-rule:nonzero;stroke:#fff;stroke-width:0.63px;"/><path d="M106.969,84.726l0,-10.221l-3.818,0l0,-1.368l9.186,0l0,1.368l-3.834,0l0,10.221l-1.534,0Z" style="fill:none;fill-rule:nonzero;stroke:#fff;stroke-width:0.63px;"/><path d="M38.015,109.732l0,-10.221l-3.819,0l0,-1.368l9.186,0l0,1.368l-3.834,0l0,10.221l-1.533,0Z" style="fill:none;fill-rule:nonzero;stroke:#fff;stroke-width:0.63px;"/><path d="M45.003,109.732l0,-11.589l1.534,0l0,4.759l6.023,0l0,-4.759l1.534,0l0,11.589l-1.534,0l0,-5.462l-6.023,0l0,5.462l-1.534,0Z" style="fill:none;fill-rule:nonzero;stroke:#fff;stroke-width:0.63px;"/><path d="M56.679,109.732l0,-11.589l8.38,0l0,1.368l-6.846,0l0,3.549l6.411,0l0,1.36l-6.411,0l0,3.945l7.115,0l0,1.367l-8.649,0Z" style="fill:none;fill-rule:nonzero;stroke:#fff;stroke-width:0.63px;"/><path d="M71.944,109.732l0,-11.589l3.993,0c0.901,0 1.588,0.055 2.063,0.166c0.664,0.153 1.23,0.43 1.699,0.83c0.612,0.517 1.069,1.177 1.372,1.98c0.303,0.804 0.455,1.722 0.455,2.755c0,0.881 -0.103,1.661 -0.309,2.34c-0.205,0.68 -0.469,1.243 -0.79,1.688c-0.322,0.446 -0.674,0.796 -1.056,1.052c-0.382,0.255 -0.843,0.449 -1.383,0.581c-0.54,0.131 -1.161,0.197 -1.862,0.197l-4.182,0Zm1.534,-1.367l2.474,0c0.765,0 1.364,-0.071 1.799,-0.214c0.435,-0.142 0.781,-0.342 1.039,-0.601c0.364,-0.363 0.647,-0.852 0.85,-1.466c0.203,-0.614 0.305,-1.358 0.305,-2.233c0,-1.212 -0.199,-2.144 -0.597,-2.795c-0.398,-0.651 -0.882,-1.087 -1.451,-1.308c-0.411,-0.158 -1.072,-0.237 -1.984,-0.237l-2.435,0l0,8.854Z" style="fill:none;fill-rule:nonzero;stroke:#fff;stroke-width:0.63px;"/><path d="M82.364,109.732l4.45,-11.589l1.652,0l4.744,11.589l-1.747,0l-1.352,-3.51l-4.846,0l-1.273,3.51l-1.628,0Zm3.344,-4.759l3.928,0l-1.209,-3.209c-0.369,-0.975 -0.643,-1.776 -0.822,-2.404c-0.148,0.744 -0.356,1.481 -0.625,2.214l-1.272,3.399Z" style="fill:none;fill-rule:nonzero;stroke:#fff;stroke-width:0.63px;"/><path d="M94.459,109.732l0,-11.589l5.138,0c1.033,0 1.818,0.104 2.356,0.312c0.538,0.208 0.967,0.576 1.289,1.103c0.321,0.527 0.482,1.109 0.482,1.747c0,0.822 -0.266,1.515 -0.799,2.079c-0.532,0.564 -1.354,0.923 -2.466,1.075c0.406,0.195 0.714,0.388 0.925,0.578c0.448,0.411 0.872,0.924 1.273,1.541l2.015,3.154l-1.928,0l-1.534,-2.411c-0.448,-0.696 -0.817,-1.228 -1.107,-1.597c-0.29,-0.369 -0.549,-0.627 -0.779,-0.774c-0.229,-0.148 -0.462,-0.251 -0.699,-0.309c-0.174,-0.037 -0.459,-0.055 -0.854,-0.055l-1.779,0l0,5.146l-1.533,0Zm1.533,-6.474l3.297,0c0.701,0 1.249,-0.073 1.644,-0.218c0.395,-0.145 0.696,-0.376 0.901,-0.695c0.206,-0.319 0.309,-0.666 0.309,-1.04c0,-0.548 -0.199,-0.999 -0.597,-1.352c-0.398,-0.353 -1.026,-0.529 -1.886,-0.529l-3.668,0l0,3.834Z" style="fill:none;fill-rule:nonzero;stroke:#fff;stroke-width:0.63px;"/><path d="M106.064,109.732l0,-11.589l1.533,0l0,5.747l5.756,-5.747l2.079,0l-4.862,4.696l5.075,6.893l-2.024,0l-4.126,-5.865l-1.898,1.849l0,4.016l-1.533,0Z" style="fill:none;fill-rule:nonzero;stroke:#fff;stroke-width:0.63px;"/></g></svg>