<?xml version="1.0" encoding="UTF-8" standalone="no"?><!DOCTYPE svg PUBLIC "-//W3C//DTD SVG 1.1//EN" "http://www.w3.org/Graphics/SVG/1.1/DTD/svg11.dtd"><svg  width="100%" height="100%" viewBox="0 0 100 100" version="1.1" xmlns="http://www.w3.org/2000/svg" xmlns:xlink="http://www.w3.org/1999/xlink" xml:space="preserve" xmlns:serif="http://www.serif.com/" style="fill-rule:evenodd;clip-rule:evenodd;stroke-linejoin:round;stroke-miterlimit:2;"><rect x="0" y="0" width="100" height="100"/><path d="M15.94,11.738c-0.634,-0.958 -1.705,-1.451 -3.212,-1.479c-0.112,0 -0.281,-0.007 -0.507,-0.021c-0.803,0 -1.204,0.24 -1.204,0.718l0,15.529c0,0.042 0.021,0.102 0.063,0.179c0.043,0.078 0.064,0.278 0.064,0.602l-1.627,0.064l-0.063,-0.148c0.239,-0.592 0.359,-0.944 0.359,-1.057l0,-15.169c0,-0.324 -0.19,-0.535 -0.571,-0.633c-0.183,-0.043 -0.429,-0.071 -0.739,-0.085c-0.155,0 -0.289,0.007 -0.401,0.021l-0.275,0c-1.324,0 -2.106,0.183 -2.345,0.549l-0.465,0.93c-0.014,-0.056 -0.025,-0.127 -0.032,-0.211c-0.007,-0.085 -0.017,-0.155 -0.031,-0.211c0,-0.155 -0.007,-0.268 -0.021,-0.338c0,-0.86 0.288,-1.289 0.866,-1.289l8.873,0c0.437,0 0.761,0.225 0.972,0.676c0.141,0.605 0.239,0.972 0.296,1.098l0,0.275Z" style="fill:none;fill-rule:nonzero;stroke:#fff;stroke-width:0.45px;"/><path d="M25.717,8.97c-0.028,0.155 -0.077,0.388 -0.148,0.698l0,17.007c0,1.07 -0.662,2.105 -1.986,3.105l-0.19,0c0.225,-0.31 0.472,-0.711 0.74,-1.204c0.197,-0.352 0.295,-0.662 0.295,-0.929l0,-14.409c-0.183,-0.127 -0.338,-0.19 -0.464,-0.19c-1.296,0 -2.444,0.627 -3.444,1.88c-0.859,1.071 -1.289,2.042 -1.289,2.916l0,8.176l0.211,0.781l0,0.423l-1.415,0l0,-18.254l1.627,0c-0.155,0.184 -0.247,0.303 -0.275,0.36c-0.085,0.126 -0.134,0.267 -0.148,0.422l0,5.303l0.148,0.063c0.521,-0.521 0.887,-0.873 1.099,-1.056c0.45,-0.408 0.852,-0.711 1.204,-0.908c0.972,-0.536 1.887,-0.867 2.746,-0.993l0,-2.493c0,-0.043 -0.028,-0.12 -0.084,-0.233c-0.113,-0.225 -0.183,-0.38 -0.211,-0.465l1.584,0Z" style="fill:none;fill-rule:nonzero;stroke:#fff;stroke-width:0.45px;"/><path d="M35.304,24.52c0,0.619 -0.204,1.204 -0.612,1.753c-0.451,0.592 -0.972,0.888 -1.564,0.888l-5.429,0l0,-0.338c0.324,-0.493 0.486,-1.064 0.486,-1.712l0,-16.204l5.007,0c0.493,0 0.817,0.162 0.972,0.486c0.098,0.197 0.14,0.486 0.126,0.866l-0.042,0.972c-0.254,-0.577 -0.479,-0.993 -0.676,-1.246c-0.31,-0.381 -1.014,-0.571 -2.113,-0.571c-0.732,0 -1.239,0.071 -1.521,0.211c-0.422,0.212 -0.634,0.634 -0.634,1.268l0,3.951l0.148,0.211c0.169,-0.113 0.486,-0.444 0.951,-0.993c0.69,-0.803 1.761,-1.415 3.211,-1.838l0.571,0c0.042,0.183 0.07,0.451 0.084,0.803c0.014,0.324 -0.014,0.577 -0.084,0.76c-0.55,-0.239 -0.993,-0.359 -1.331,-0.359c-1.043,-0.014 -1.916,0.557 -2.62,1.711c-0.62,1 -0.93,2.05 -0.93,3.148l0,7.057c0,0.774 0.571,1.169 1.712,1.183c1.352,0.014 2.401,-0.31 3.148,-0.972l1.077,-1.5c0,0.042 0.007,0.109 0.021,0.201c0.014,0.091 0.028,0.179 0.042,0.264Z" style="fill:none;fill-rule:nonzero;stroke:#fff;stroke-width:0.45px;"/><path d="M56.338,22.576c0.014,1.155 -0.458,2.247 -1.415,3.275c-0.817,0.887 -1.578,1.331 -2.282,1.331l-3.401,0l-0.085,-0.169c0.056,-0.099 0.134,-0.303 0.232,-0.613l-0.063,-17.197c0.732,-0.183 1.451,-0.282 2.155,-0.296c0.662,-0.014 1.317,0.176 1.965,0.571c0.901,0.549 1.359,1.408 1.373,2.577c0.014,0.718 -0.162,1.415 -0.528,2.092c-0.113,0.211 -0.5,0.873 -1.162,1.985c2.127,2.62 3.197,4.768 3.211,6.444Zm-2.577,-10.141c0,-0.718 -0.162,-1.366 -0.486,-1.943c-0.381,-0.676 -0.902,-1.022 -1.564,-1.036c-0.366,-0.014 -0.655,0.162 -0.866,0.529c-0.155,0.295 -0.239,0.647 -0.253,1.056c-0.014,0.634 0.246,1.444 0.781,2.429c0.409,0.761 0.881,1.437 1.416,2.029c0.648,-0.831 0.972,-1.852 0.972,-3.064Zm1.267,10.204c0,-1.028 -0.232,-2.028 -0.697,-3c-0.225,-0.464 -0.782,-1.338 -1.669,-2.619c-0.817,-1.169 -1.479,-2.289 -1.986,-3.359c-0.028,0.056 -0.056,0.119 -0.084,0.19l0,12.486c0.507,0.183 0.95,0.274 1.331,0.274c0.971,0 1.746,-0.436 2.324,-1.31c0.521,-0.76 0.781,-1.647 0.781,-2.662Z" style="fill:none;fill-rule:nonzero;stroke:#fff;stroke-width:0.45px;"/><path d="M66.052,24.52c0,0.619 -0.204,1.204 -0.612,1.753c-0.451,0.592 -0.972,0.888 -1.564,0.888l-5.429,0l0,-0.338c0.324,-0.493 0.486,-1.064 0.486,-1.712l0,-16.204l5.007,0c0.493,0 0.816,0.162 0.971,0.486c0.099,0.197 0.141,0.486 0.127,0.866l-0.042,0.972c-0.254,-0.577 -0.479,-0.993 -0.676,-1.246c-0.31,-0.381 -1.014,-0.571 -2.113,-0.571c-0.732,0 -1.239,0.071 -1.521,0.211c-0.422,0.212 -0.634,0.634 -0.634,1.268l0,3.951l0.148,0.211c0.169,-0.113 0.486,-0.444 0.951,-0.993c0.69,-0.803 1.76,-1.415 3.211,-1.838l0.571,0c0.042,0.183 0.07,0.451 0.084,0.803c0.014,0.324 -0.014,0.577 -0.084,0.76c-0.55,-0.239 -0.993,-0.359 -1.331,-0.359c-1.043,-0.014 -1.916,0.557 -2.62,1.711c-0.62,1 -0.93,2.05 -0.93,3.148l0,7.057c0,0.774 0.571,1.169 1.712,1.183c1.352,0.014 2.401,-0.31 3.147,-0.972l1.078,-1.5c0,0.042 0.007,0.109 0.021,0.201c0.014,0.091 0.028,0.179 0.042,0.264Z" style="fill:none;fill-rule:nonzero;stroke:#fff;stroke-width:0.45px;"/><path d="M76.337,27.203l-1.69,0c0.14,-0.197 0.281,-0.437 0.422,-0.718c0,-0.803 -0.007,-1.958 -0.021,-3.465l-0.042,-6.888c-0.141,0.198 -0.275,0.522 -0.402,0.972c-0.155,0.493 -0.281,0.831 -0.38,1.014l-2.746,4.014c-0.423,1.465 -0.747,2.55 -0.972,3.254c-0.352,1.113 -1.014,2.042 -1.986,2.789c-0.071,-0.043 -0.183,-0.169 -0.338,-0.381c-0.042,-0.056 -0.092,-0.14 -0.148,-0.253c0.394,-0.169 0.775,-0.412 1.141,-0.729c0.366,-0.317 0.591,-0.75 0.676,-1.299l0.359,-2.535c0.056,-0.381 0.12,-1.064 0.19,-2.05c0.028,-0.676 0.106,-1.711 0.233,-3.105c0.45,-3.268 1.126,-5.522 2.028,-6.761c0.535,-0.746 1.598,-1.352 3.19,-1.817l0.486,0.063l0,17.895Zm-1.331,-13.606l0,-2.873c0,-0.085 -0.035,-0.19 -0.106,-0.317c-0.07,-0.127 -0.169,-0.19 -0.296,-0.19c-0.986,0 -1.831,1.556 -2.535,4.669c-0.253,1.099 -0.415,2.246 -0.486,3.444c-0.042,0.619 -0.098,1.295 -0.169,2.028l0,0.634c0.254,-0.86 0.711,-1.747 1.373,-2.662c0.479,-0.691 0.979,-1.395 1.5,-2.113c0.479,-0.873 0.719,-1.747 0.719,-2.62Z" style="fill:none;fill-rule:nonzero;stroke:#fff;stroke-width:0.45px;"/><path d="M83.685,8.632c-0.169,0.423 -0.698,0.662 -1.585,0.719c-0.831,0.056 -1.331,0.739 -1.5,2.049l1.521,14.092c0,0.929 -0.429,1.584 -1.288,1.964c-0.113,0.057 -0.374,0.141 -0.782,0.254c-0.662,0.197 -1.134,0.387 -1.416,0.57c-0.084,0 -0.148,-0.007 -0.19,-0.021c0,-0.451 0.19,-0.753 0.571,-0.908c0.38,-0.113 0.767,-0.233 1.162,-0.359c0.464,-0.198 0.774,-0.564 0.929,-1.099l-1.605,-14.408c0.281,-1.057 0.816,-1.817 1.605,-2.282c0.578,-0.211 1.437,-0.542 2.578,-0.993l0,0.422Z" style="fill:none;fill-rule:nonzero;stroke:#fff;stroke-width:0.45px;"/><path d="M95.659,11.738c-0.634,-0.958 -1.704,-1.451 -3.211,-1.479c-0.113,0 -0.282,-0.007 -0.507,-0.021c-0.803,0 -1.204,0.24 -1.204,0.718l0,15.529c0,0.042 0.021,0.102 0.063,0.179c0.042,0.078 0.064,0.278 0.064,0.602l-1.627,0.064l-0.064,-0.148c0.24,-0.592 0.36,-0.944 0.36,-1.057l0,-15.169c0,-0.324 -0.191,-0.535 -0.571,-0.633c-0.183,-0.043 -0.429,-0.071 -0.739,-0.085c-0.155,0 -0.289,0.007 -0.402,0.021l-0.274,0c-1.324,0 -2.106,0.183 -2.345,0.549l-0.465,0.93c-0.014,-0.056 -0.025,-0.127 -0.032,-0.211c-0.007,-0.085 -0.018,-0.155 -0.032,-0.211c0,-0.155 -0.007,-0.268 -0.021,-0.338c0,-0.86 0.289,-1.289 0.866,-1.289l8.874,0c0.436,0 0.76,0.225 0.972,0.676c0.14,0.605 0.239,0.972 0.295,1.098l0,0.275Z" style="fill:none;fill-rule:nonzero;stroke:#fff;stroke-width:0.45px;"/></svg> 